<?xml version="1.0" standalone="no"?>
<svg xmlns:xlink="http://www.w3.org/1999/xlink" id="wave" style="transform:rotate(180deg); transition: 0.3s" viewBox="0 0 1440 140" version="1.1" xmlns="http://www.w3.org/2000/svg"><defs><linearGradient id="sw-gradient-0" x1="0" x2="0" y1="1" y2="0"><stop stop-color="rgba(255, 249, 234, 1)" offset="0%"/><stop stop-color="rgba(255, 249, 234, 1)" offset="100%"/></linearGradient></defs><path style="transform:translate(0, 0px); opacity:1" fill="url(#sw-gradient-0)" d="M0,112L20,95.7C40,79,80,47,120,42C160,37,200,61,240,72.3C280,84,320,84,360,79.3C400,75,440,65,480,65.3C520,65,560,75,600,86.3C640,98,680,112,720,100.3C760,89,800,51,840,35C880,19,920,23,960,23.3C1000,23,1040,19,1080,32.7C1120,47,1160,79,1200,81.7C1240,84,1280,56,1320,44.3C1360,33,1400,37,1440,51.3C1480,65,1520,89,1560,102.7C1600,117,1640,121,1680,109.7C1720,98,1760,70,1800,49C1840,28,1880,14,1920,14C1960,14,2000,28,2040,46.7C2080,65,2120,89,2160,81.7C2200,75,2240,37,2280,28C2320,19,2360,37,2400,46.7C2440,56,2480,56,2520,67.7C2560,79,2600,103,2640,95.7C2680,89,2720,51,2760,51.3C2800,51,2840,89,2860,107.3L2880,126L2880,140L2860,140C2840,140,2800,140,2760,140C2720,140,2680,140,2640,140C2600,140,2560,140,2520,140C2480,140,2440,140,2400,140C2360,140,2320,140,2280,140C2240,140,2200,140,2160,140C2120,140,2080,140,2040,140C2000,140,1960,140,1920,140C1880,140,1840,140,1800,140C1760,140,1720,140,1680,140C1640,140,1600,140,1560,140C1520,140,1480,140,1440,140C1400,140,1360,140,1320,140C1280,140,1240,140,1200,140C1160,140,1120,140,1080,140C1040,140,1000,140,960,140C920,140,880,140,840,140C800,140,760,140,720,140C680,140,640,140,600,140C560,140,520,140,480,140C440,140,400,140,360,140C320,140,280,140,240,140C200,140,160,140,120,140C80,140,40,140,20,140L0,140Z"/></svg>